<?xml version="1.0" standalone="no"?>
<!DOCTYPE svg PUBLIC "-//W3C//DTD SVG 20010904//EN"
 "http://www.w3.org/TR/2001/REC-SVG-20010904/DTD/svg10.dtd">
<svg version="1.0" xmlns="http://www.w3.org/2000/svg"
 width="366.000000pt" height="366.000000pt" viewBox="0 0 366.000000 366.000000"
 preserveAspectRatio="xMidYMid meet">

<g transform="translate(0.000000,366.000000) scale(0.100000,-0.100000)"
fill="#000000" stroke="none">
<path d="M0 2383 l0 -1277 37 36 c55 53 110 72 189 65 50 -4 74 -11 105 -33
23 -16 52 -36 66 -44 35 -22 36 -44 10 -155 l-23 -100 -115 -6 c-122 -6 -162
-20 -175 -62 -8 -25 -6 -226 2 -239 4 -5 34 -6 68 -3 69 8 216 -11 228 -29 4
-6 8 -26 8 -45 0 -26 -3 -32 -16 -27 -64 25 -68 19 -20 -27 44 -41 50 -44 64
-31 10 11 25 14 48 10 18 -4 35 -2 39 4 4 6 -6 10 -24 10 -35 0 -74 33 -69 58
2 12 15 18 40 20 56 5 78 -11 78 -57 0 -46 10 -56 74 -72 59 -15 65 -8 67 76
2 105 16 131 19 35 1 -47 3 -103 3 -125 2 -57 -13 -316 -20 -342 l-5 -23 1120
0 c721 0 1123 3 1127 10 3 5 1 19 -5 30 -6 12 -15 74 -20 139 -5 64 -13 128
-18 141 -5 14 -6 37 -2 52 5 14 5 29 2 33 -9 9 -9 138 1 152 13 18 -8 25 -91
30 l-77 6 0 -159 0 -159 -37 -3 c-45 -4 -46 1 -50 192 l-3 139 -130 -7 c-71
-4 -131 -9 -133 -11 -2 -2 -1 -13 3 -24 5 -18 15 -21 56 -21 66 0 89 -13 89
-50 0 -29 -1 -30 -49 -30 -86 0 -111 -9 -111 -40 0 -33 25 -46 104 -54 32 -4
63 -9 67 -12 18 -11 8 -44 -18 -61 -38 -25 -187 -24 -226 2 l-27 17 0 154 c0
144 1 154 23 179 33 38 166 61 207 35 9 -5 19 -5 27 2 8 6 76 13 158 16 122 4
148 2 169 -12 14 -9 28 -16 31 -16 9 0 5 39 -4 45 -6 3 -10 66 -10 140 -1 101
3 145 15 175 9 22 20 40 25 40 19 0 26 -51 33 -240 4 -107 11 -251 16 -320 5
-69 12 -212 16 -317 l7 -193 213 0 c166 0 212 3 209 13 -3 6 -18 56 -34 109
-17 53 -37 107 -45 120 -7 13 -17 38 -21 55 -5 26 -3 33 8 33 9 0 22 -7 31
-15 25 -25 37 -18 31 18 -6 31 -3 36 34 60 43 29 137 58 159 50 15 -6 27 -48
17 -62 -4 -7 5 -11 24 -11 63 0 32 -27 -71 -64 -136 -49 -168 -63 -174 -80 -5
-12 15 -82 52 -184 l16 -42 124 0 124 0 0 171 c0 98 -4 178 -10 190 -7 13 -7
19 0 19 17 0 13 335 -6 426 -27 133 -42 148 -130 140 -27 -3 -92 -8 -145 -12
l-96 -7 -11 59 c-6 33 -14 93 -18 135 l-7 76 99 13 c144 18 258 4 307 -38 16
-14 17 45 17 1236 l0 1252 -374 0 -374 0 -7 -70 c-4 -38 -4 -149 -1 -247 3
-98 8 -317 11 -488 4 -170 10 -327 16 -348 10 -39 29 -42 29 -4 0 36 15 50 44
43 15 -4 26 -2 26 4 0 5 12 10 28 9 37 0 77 -50 63 -78 -19 -34 -14 -82 9 -88
11 -3 20 -12 20 -20 0 -13 -3 -13 -15 -3 -13 11 -15 8 -15 -14 0 -14 5 -26 10
-26 14 0 12 -28 -2 -32 -9 -3 -4 -36 21 -124 55 -195 55 -199 34 -241 -52
-107 -167 -105 -218 4 -26 55 -5 61 49 14 26 -23 56 -41 67 -41 31 0 59 36 59
77 0 34 -56 173 -69 173 -4 0 -12 -20 -19 -45 -10 -37 -16 -45 -35 -45 -13 0
-31 6 -41 13 -16 12 -17 19 -7 66 13 63 14 84 2 77 -5 -4 -12 -28 -16 -54 -13
-100 -45 -92 -45 12 0 77 -18 136 -40 136 -22 0 -28 24 -35 135 -3 50 -8 124
-10 165 -3 41 -7 104 -10 140 -2 36 -5 65 -5 65 -7 0 -5 47 2 51 4 3 5 11 1
17 -7 11 -12 60 -15 130 -1 25 -6 37 -16 37 -12 0 -12 3 -2 15 9 11 9 15 1 15
-7 0 -9 5 -5 12 6 10 7 77 1 240 -1 25 -5 50 -9 53 -4 4 -3 15 1 24 10 19 2
83 -9 76 -4 -3 -8 1 -7 8 1 44 -3 49 -34 45 -20 -3 -33 0 -36 9 -3 7 -9 13
-14 13 -5 0 -18 9 -29 20 -24 24 -53 26 -70 5 -16 -19 -25 -19 -45 2 -14 13
-23 15 -45 6 -16 -6 -32 -7 -37 -2 -7 7 -65 16 -148 23 -16 2 -41 6 -54 10
-16 6 -21 5 -17 -3 5 -8 -15 -9 -69 -4 -83 7 -111 -2 -153 -47 l-23 -25 16 35
c9 19 20 43 25 53 10 16 -5 17 -245 17 l-255 0 41 -67 c130 -213 175 -252 254
-224 l30 11 -25 -21 c-32 -27 -82 -20 -122 18 -31 29 -188 259 -188 274 0 5
-159 9 -360 9 -198 0 -360 -4 -360 -8 0 -4 -14 -16 -31 -26 -18 -11 -28 -23
-25 -32 3 -8 1 -14 -3 -14 -5 0 -7 -10 -4 -21 4 -16 2 -20 -8 -17 -7 2 -18 24
-22 49 -5 24 -14 50 -19 57 -8 9 -89 12 -344 12 l-334 0 0 -1277z m3323 1215
c63 -42 79 -68 97 -150 18 -91 -10 -198 -52 -198 -5 0 1 13 12 28 27 37 42
104 34 150 -4 21 -22 60 -40 89 -27 41 -43 54 -81 67 -52 18 -223 23 -223 6 0
-5 -5 -10 -11 -10 -5 0 -8 4 -5 9 3 5 -10 12 -29 15 -91 17 -2 34 166 32 70
-1 80 -4 132 -38z m-2699 -20 c-3 -13 -8 -24 -9 -26 -2 -2 -51 1 -110 5 -116
9 -147 3 -181 -38 -10 -13 -28 -31 -38 -39 -19 -15 -19 -14 -2 17 9 18 40 49
69 68 52 35 52 35 165 35 113 0 113 0 106 -22z m1779 15 c-7 -2 -21 -2 -30 0
-10 3 -4 5 12 5 17 0 24 -2 18 -5z m785 -10 c-15 -2 -42 -2 -60 0 -18 2 -6 4
27 4 33 0 48 -2 33 -4z m0 -40 c-10 -2 -28 -2 -40 0 -13 2 -5 4 17 4 22 1 32
-1 23 -4z m-471 -57 c26 -24 46 -47 43 -50 -3 -3 -23 10 -43 29 -21 19 -42 35
-46 35 -5 0 -11 7 -15 15 -10 26 11 16 61 -29z m520 28 c-3 -3 -12 -4 -19 -1
-8 3 -5 6 6 6 11 1 17 -2 13 -5z m-60 -10 c-3 -3 -12 -4 -19 -1 -8 3 -5 6 6 6
11 1 17 -2 13 -5z m-2752 -84 c3 -5 1 -10 -4 -10 -6 0 -11 5 -11 10 0 6 2 10
4 10 3 0 8 -4 11 -10z m2908 -10 c-3 -11 -7 -20 -9 -20 -2 0 -4 9 -4 20 0 11
4 20 9 20 5 0 7 -9 4 -20z m-3086 -42 c-2 -13 -4 -5 -4 17 -1 22 1 32 4 23 2
-10 2 -28 0 -40z m133 -123 c7 -30 15 -55 17 -55 1 0 12 9 23 20 26 26 70 37
81 19 6 -11 9 -10 15 5 5 12 13 16 30 12 12 -3 26 -2 29 4 3 5 17 10 30 10 21
0 24 -6 30 -52 7 -56 0 -166 -10 -176 -10 -11 -23 19 -18 42 4 20 4 20 -10 4
-18 -23 -23 -23 -30 3 -3 12 -10 18 -17 14 -6 -4 -9 -13 -6 -20 6 -16 -17 -38
-28 -27 -4 4 -12 0 -17 -9 -6 -11 -19 -15 -40 -13 -46 6 -49 10 -49 69 0 48
-3 55 -27 67 -35 17 -53 46 -35 57 9 5 11 20 6 51 -10 62 10 44 26 -25z m2683
44 l37 -10 0 -122 c0 -67 -4 -128 -8 -135 -7 -10 -15 -10 -38 -1 -16 7 -35 13
-43 13 -18 1 -50 99 -51 153 0 44 33 113 53 113 7 0 29 -5 50 -11z m155 -20
c28 -10 31 -16 38 -66 3 -30 3 -87 -2 -126 l-9 -72 -53 -8 c-30 -5 -56 -6 -60
-3 -3 4 -8 69 -10 146 l-5 140 35 0 c19 0 49 -5 66 -11z m-593 -38 c-9 -9 -55
11 -55 24 0 12 5 11 29 -3 16 -9 28 -18 26 -21z m-1505 -2 c0 -10 -44 -12 -77
-3 -40 11 -25 19 27 16 27 -2 50 -8 50 -13z m1113 -24 c17 -4 36 -9 40 -12 4
-2 49 -6 100 -9 143 -6 167 -12 208 -53 52 -52 102 -120 121 -166 32 -75 43
-235 17 -251 -5 -3 -9 -15 -9 -27 0 -36 -44 -119 -86 -163 -46 -47 -151 -111
-203 -123 -48 -10 -158 -4 -196 11 -43 17 -137 78 -157 102 -10 12 -21 31 -24
43 -3 12 -16 29 -29 37 -13 9 -33 37 -45 62 -19 45 -19 48 -3 66 14 16 15 21
4 28 -10 6 -13 25 -9 76 10 132 113 295 205 324 51 17 59 26 34 39 -12 7 -21
21 -21 34 1 19 2 20 10 5 6 -9 25 -20 43 -23z m1135 14 c12 -19 11 -19 -8 -9
-11 6 -20 15 -20 20 0 17 15 11 28 -11z m-1941 -2 c3 -4 -8 -12 -25 -18 -44
-15 -41 -32 4 -23 25 5 40 2 52 -9 9 -9 39 -35 65 -59 61 -53 90 -110 123
-240 21 -83 24 -106 14 -122 -9 -14 -9 -20 1 -26 20 -13 -54 -135 -118 -194
-77 -71 -119 -93 -194 -105 -127 -21 -179 -13 -275 44 -70 41 -118 86 -135
123 -8 18 -17 32 -20 32 -10 0 -29 118 -29 176 1 101 25 179 80 253 69 93 109
119 211 137 46 9 103 21 125 27 44 13 110 14 121 4z m1143 3 c0 -5 -4 -10 -9
-10 -5 0 -16 -3 -25 -6 -9 -3 -16 -1 -16 4 0 9 16 17 43 21 4 0 7 -3 7 -9z
m767 -162 c-3 -8 -6 -5 -6 6 -1 11 2 17 5 13 3 -3 4 -12 1 -19z m-2757 -17 c0
-6 -4 -13 -10 -16 -5 -3 -10 1 -10 9 0 9 5 16 10 16 6 0 10 -4 10 -9z m2697
-38 c-3 -10 -5 -2 -5 17 0 19 2 27 5 18 2 -10 2 -26 0 -35z m-3000 -30 c-3
-10 -5 -2 -5 17 0 19 2 27 5 18 2 -10 2 -26 0 -35z m3040 -573 c1 -102 -2
-202 -8 -222 -11 -43 -60 -88 -95 -88 -29 0 -30 9 -4 43 19 24 21 44 25 232 3
114 8 211 11 216 3 6 20 9 37 7 l32 -3 2 -185z m-2665 77 c4 -7 8 -30 8 -52 0
-74 29 -217 56 -282 26 -60 30 -65 89 -93 60 -28 72 -30 266 -41 112 -6 222
-15 244 -19 l40 -8 -32 -13 c-35 -14 -49 -37 -34 -52 5 -5 2 -16 -9 -27 -13
-13 -35 -18 -86 -19 -43 -1 -77 -7 -92 -17 l-24 -16 23 -24 22 -24 -59 0 c-33
0 -83 7 -111 15 -65 19 -143 86 -143 123 -1 20 -13 36 -48 62 -47 35 -47 35
-140 31 -86 -3 -95 -1 -126 22 -35 28 -70 91 -85 156 -9 39 10 248 24 271 4 6
17 16 29 21 28 12 178 1 188 -14z m1438 -307 c0 -6 -101 -9 -287 -8 l-288 2
255 6 c140 3 270 7 288 8 17 1 32 -2 32 -8z m596 -67 c-19 -19 -290 -32 -300
-14 -6 9 110 21 208 21 34 0 68 5 76 10 15 10 28 -5 16 -17z m-1583 -13 c66 0
97 -4 97 -11 0 -17 -218 -6 -233 11 -10 10 -7 11 13 6 14 -3 69 -6 123 -6z
m1652 -120 c17 -28 -111 -130 -164 -130 -21 0 36 35 72 43 15 4 27 12 27 17 0
6 6 10 13 10 7 0 18 10 25 21 19 29 0 49 -28 31 -26 -16 -180 -28 -180 -14 0
21 223 42 235 22z m-245 -30 c0 -5 -4 -10 -10 -10 -5 0 -10 5 -10 10 0 6 5 10
10 10 6 0 10 -4 10 -10z m-115 -120 c3 -5 -1 -10 -10 -10 -9 0 -13 5 -10 10 3
6 8 10 10 10 2 0 7 -4 10 -10z m165 0 c0 -5 -4 -10 -9 -10 -5 0 -18 -3 -28 -7
-16 -6 -16 -5 -4 10 15 19 41 23 41 7z m-580 -74 c0 -3 -4 -8 -10 -11 -5 -3
-10 -1 -10 4 0 6 5 11 10 11 6 0 10 -2 10 -4z m10 -46 c0 -5 -9 -10 -20 -10
-11 0 -20 5 -20 10 0 6 9 10 20 10 11 0 20 -4 20 -10z m-1 -43 c12 -15 5 -27
-16 -27 -7 0 -13 9 -13 20 0 23 13 26 29 7z m2 -106 c-14 -25 -29 -27 -38 -5
-4 11 1 22 12 30 25 18 40 3 26 -25z m-618 7 c16 -6 27 -17 27 -29 0 -22 -1
-23 -37 -7 -42 19 -76 70 -35 53 9 -4 29 -12 45 -17z m117 2 c0 -16 -26 -40
-44 -40 -14 0 -4 40 12 49 25 15 32 13 32 -9z m835 7 c16 -13 15 -14 -12 -10
-17 3 -40 0 -52 -6 -11 -7 -21 -8 -21 -3 0 9 37 30 56 31 5 1 18 -5 29 -12z
m-177 -3 c26 -7 30 -42 6 -51 -18 -7 -44 20 -44 44 0 15 5 15 38 7z m342 -37
c0 -4 -10 -5 -22 -1 -31 9 -33 11 -17 30 12 14 14 14 26 -2 7 -10 13 -22 13
-27z m-65 13 c3 -5 -1 -10 -9 -10 -9 0 -16 5 -16 10 0 6 4 10 9 10 6 0 13 -4
16 -10z m-1470 -130 l0 -95 -70 -3 c-83 -4 -114 -22 -39 -23 27 0 80 -1 118
-3 76 -2 85 5 67 54 -6 20 -7 40 -1 55 6 15 6 27 0 30 -5 3 -13 -9 -18 -27 -4
-18 -12 -33 -18 -33 -10 0 -21 45 -23 96 -1 33 2 37 30 43 40 8 162 8 183 0 9
-3 16 -15 16 -27 0 -11 8 -29 17 -39 13 -15 14 -19 3 -16 -8 2 -19 -7 -25 -19
-14 -33 -23 -29 -36 17 l-12 39 -19 -24 c-24 -30 -34 -81 -19 -98 6 -8 8 -17
4 -21 -4 -4 -6 -23 -4 -42 4 -46 -14 -67 -50 -59 -15 4 -146 7 -291 8 -145 1
-269 6 -275 10 -19 12 -18 240 0 256 12 9 240 18 417 16 l45 0 0 -95z m325 85
c0 -8 -4 -15 -10 -15 -5 0 -7 7 -4 15 4 8 8 15 10 15 2 0 4 -7 4 -15z m717 -1
c3 -8 0 -27 -6 -41 -9 -20 -14 -23 -25 -14 -11 9 -12 18 -3 41 13 33 24 38 34
14z m1095 -2 c19 -19 24 -173 7 -203 -7 -13 -14 -40 -15 -59 -2 -19 -8 -58
-14 -85 -7 -28 -11 -90 -9 -138 4 -78 2 -87 -13 -87 -16 0 -18 11 -18 94 0 53
4 98 10 101 14 8 13 45 -1 45 -6 0 -8 7 -5 16 4 10 2 13 -6 8 -7 -5 -9 -2 -6
7 19 50 19 57 -4 62 -13 4 -130 4 -260 0 -268 -7 -252 -12 -246 73 l3 49 8
-40 c10 -47 19 -67 35 -73 20 -6 15 99 -5 128 -10 14 -18 36 -19 50 0 14 -4
33 -8 42 -7 15 2 17 84 17 51 0 95 3 99 6 3 3 88 5 188 3 133 -2 186 -7 195
-16z m-1532 -23 c0 -10 -4 -19 -10 -19 -5 0 -10 12 -10 26 0 14 4 23 10 19 6
-3 10 -15 10 -26z m85 21 c3 -6 -4 -10 -17 -10 -18 0 -20 2 -8 10 19 12 18 12
25 0z m495 -48 c0 -49 -16 -30 -18 20 -1 31 1 39 8 28 5 -8 10 -30 10 -48z
m307 26 c-3 -8 -6 -5 -6 6 -1 11 2 17 5 13 3 -3 4 -12 1 -19z m-954 -43 c4 -8
2 -17 -3 -20 -6 -4 -10 3 -10 14 0 25 6 27 13 6z m849 -45 c-17 -41 -32 -52
-32 -24 0 16 31 63 42 64 3 0 -1 -18 -10 -40z m78 25 c0 -23 -29 -75 -42 -75
-15 0 -3 71 14 82 20 12 28 10 28 -7z m-1071 -55 l0 -25 -15 28 c-8 15 -12 32
-8 38 9 16 24 -10 23 -41z m58 28 c-3 -8 -6 -5 -6 6 -1 11 2 17 5 13 3 -3 4
-12 1 -19z m-130 -10 c-3 -8 -6 -5 -6 6 -1 11 2 17 5 13 3 -3 4 -12 1 -19z
m1176 -28 c-6 -22 -23 -38 -23 -21 0 17 12 41 20 41 5 0 6 -9 3 -20z m-1217
-97 c-6 -7 -46 82 -45 100 0 7 12 -12 26 -41 14 -29 22 -56 19 -59z m1259 77
c3 -5 1 -10 -4 -10 -6 0 -11 5 -11 10 0 6 2 10 4 10 3 0 8 -4 11 -10z m-1335
-118 c0 -15 -2 -15 -10 -2 -13 20 -13 33 0 25 6 -3 10 -14 10 -23z m1818 6
c-14 -22 -25 -23 -159 -29 -219 -10 -417 -10 -423 -1 -7 11 150 32 250 33 44
1 106 5 139 9 33 4 93 8 134 9 l73 1 -14 -22z m-2198 -44 c96 -4 203 -7 237
-8 55 -2 86 -10 72 -19 -2 -1 -69 0 -149 4 -80 4 -207 7 -282 8 -75 0 -139 5
-142 10 -10 15 8 22 48 17 23 -3 120 -8 216 -12z m510 6 c0 -5 -2 -10 -4 -10
-3 0 -8 5 -11 10 -3 6 -1 10 4 10 6 0 11 -4 11 -10z m-37 -17 c4 -3 -2 -13
-14 -21 -23 -16 -32 -12 -23 12 6 16 25 21 37 9z m781 -27 c61 -37 79 -109 68
-266 l-7 -95 -18 37 c-9 20 -23 72 -31 116 -20 112 -32 134 -81 145 -22 5 -96
6 -165 3 -69 -3 -147 -6 -174 -6 -42 0 -52 -4 -80 -35 -18 -19 -38 -35 -44
-35 -17 0 -15 46 3 84 27 56 41 60 260 66 110 4 207 7 215 8 8 1 32 -9 54 -22z
m956 8 c0 -23 -20 -55 -31 -49 -10 7 -12 48 -2 58 12 13 33 7 33 -9z m221 -44
c4 -14 7 -64 8 -113 l1 -87 -27 6 c-76 18 -78 20 -81 127 l-3 98 48 -3 c41 -3
48 -6 54 -28z m-2695 -89 c-8 -133 -16 -153 -58 -149 -31 3 -33 5 -36 48 -3
38 21 169 35 193 2 4 18 7 35 7 l31 0 -7 -99z m104 54 c16 -20 23 -150 10
-176 -13 -22 -45 -30 -66 -14 -15 11 -17 28 -16 121 1 60 2 110 2 112 0 7 58
-28 70 -43z m1730 25 c0 -5 -2 -10 -4 -10 -3 0 -8 5 -11 10 -3 6 -1 10 4 10 6
0 11 -4 11 -10z m-1680 -70 c0 -16 -2 -30 -4 -30 -2 0 -6 14 -8 30 -3 17 -1
30 4 30 4 0 8 -13 8 -30z m1803 -15 c-4 -15 -56 -12 -61 3 -3 10 5 13 29 10
19 -2 33 -7 32 -13z m153 -50 c1 -15 -3 -25 -12 -25 -15 0 -17 10 -8 34 9 24
19 19 20 -9z m777 -92 c-7 -2 -19 -2 -25 0 -7 3 -2 5 12 5 14 0 19 -2 13 -5z
m-240 -10 c-7 -2 -19 -2 -25 0 -7 3 -2 5 12 5 14 0 19 -2 13 -5z m160 0 c-7
-2 -19 -2 -25 0 -7 3 -2 5 12 5 14 0 19 -2 13 -5z m-2838 -14 c11 -17 -1 -21
-34 -14 -17 4 -29 11 -25 16 7 12 51 11 59 -2z m133 -7 c2 -8 -8 -12 -32 -12
-24 0 -36 5 -36 14 0 17 62 16 68 -2z m1736 -8 c3 -9 6 -29 6 -45 0 -22 -5
-29 -20 -29 -11 0 -20 4 -20 9 0 5 -2 24 -5 42 -4 29 -3 30 4 9 l9 -25 1 28
c1 30 15 36 25 11z m239 -35 c-5 -5 -27 -12 -49 -15 l-39 -5 45 19 c46 19 62
20 43 1z m-1324 -35 c3 -3 0 -9 -6 -15 -15 -15 -43 -4 -43 16 0 12 6 15 23 9
12 -3 24 -8 26 -10z m542 -44 c16 0 19 -7 19 -50 0 -48 -1 -49 -32 -55 -18 -3
-64 -6 -103 -8 l-70 -2 -3 -90 c-2 -49 0 -105 3 -122 l6 -33 84 0 c46 0 90 -3
99 -6 25 -10 19 -50 -10 -73 -22 -18 -41 -21 -111 -21 -149 0 -163 20 -163
237 0 127 1 132 26 163 35 41 86 61 162 63 59 2 62 3 63 27 2 24 2 24 6 -2 3
-20 10 -28 24 -28z m-874 -6 c-9 -9 -28 6 -21 18 4 6 10 6 17 -1 6 -6 8 -13 4
-17z m202 -39 c9 -9 11 -23 6 -44 l-7 -31 -69 0 c-38 0 -69 -4 -69 -9 0 -6 -8
-9 -17 -9 -10 1 -28 -2 -40 -6 -17 -6 -23 -3 -23 8 0 23 -37 20 -43 -4 -7 -29
14 -37 121 -45 126 -10 136 -18 140 -122 2 -66 0 -82 -17 -103 -19 -24 -23
-25 -156 -25 l-136 0 -29 35 c-22 27 -26 39 -18 53 9 17 19 18 101 13 51 -3
86 -3 80 0 -7 3 -13 11 -13 18 0 14 -27 29 -83 46 -65 20 -93 91 -66 169 8 24
17 31 36 31 18 0 24 4 19 15 -4 10 3 17 22 21 15 3 32 7 37 9 26 8 211 -9 224
-20z m1085 17 c3 -5 6 -93 8 -196 2 -212 1 -216 -73 -216 -54 0 -91 36 -144
142 l-45 90 0 -111 c0 -99 -2 -111 -19 -121 -29 -15 -68 -12 -75 6 -3 9 -6 90
-6 180 0 204 7 224 76 224 60 0 76 -20 139 -165 l50 -116 3 145 3 146 39 0
c21 0 41 -4 44 -8z m-786 -8 c45 -9 59 -39 71 -148 13 -111 7 -164 -23 -208
-26 -39 -57 -48 -166 -49 -95 0 -133 10 -150 41 -14 25 -20 174 -11 259 6 52
12 68 35 87 24 22 37 24 120 24 52 0 107 -3 124 -6z m1651 -106 c1 -15 6 -61
12 -102 l11 -75 28 20 c19 14 39 19 66 17 38 -3 39 -4 42 -46 3 -40 1 -43 -32
-57 -19 -8 -51 -15 -70 -15 -32 0 -36 3 -45 38 -20 80 -43 267 -33 276 8 9 20
-22 21 -56z m-2459 -1 c0 -39 -15 -57 -47 -57 -18 0 -23 6 -23 27 0 31 26 63
52 63 14 0 18 -8 18 -33z m2598 -12 c4 -63 -6 -69 -66 -40 -42 20 -52 30 -52
49 0 27 19 35 80 32 33 -1 35 -3 38 -41z m117 36 c3 -5 1 -13 -5 -16 -15 -9
-43 3 -35 15 8 13 32 13 40 1z m-2282 -18 c-7 -2 -19 -2 -25 0 -7 3 -2 5 12 5
14 0 19 -2 13 -5z m2237 -60 c0 -15 1 -15 13 2 9 11 19 15 27 10 8 -5 54 -9
104 -9 75 -1 91 -4 94 -17 4 -19 -57 -29 -185 -29 l-83 0 0 30 c0 20 5 30 15
30 8 0 15 -8 15 -17z m-250 -83 c0 -5 -15 -10 -32 -9 -28 0 -30 2 -13 9 28 12
45 12 45 0z m-1110 -270 c-182 -11 -367 -11 -350 0 9 6 109 9 240 8 198 -1
211 -2 110 -8z"/>
<path d="M2300 2979 c-33 -13 -58 -37 -85 -79 -18 -29 -22 -49 -21 -100 2 -77
19 -116 64 -147 70 -46 148 -39 219 21 91 77 57 242 -60 294 -56 24 -78 26
-117 11z"/>
<path d="M1210 2961 c-19 -11 -46 -31 -60 -46 -21 -23 -25 -35 -24 -88 4 -174
139 -252 258 -148 31 27 49 73 49 126 0 64 -21 105 -75 144 -49 36 -95 40
-148 12z"/>
<path d="M2598 1373 c-5 -56 2 -68 36 -59 22 5 24 9 16 35 -11 38 -29 71 -39
71 -5 0 -11 -21 -13 -47z"/>
<path d="M1257 574 c-4 -4 -7 -56 -7 -116 l0 -108 80 0 80 0 0 105 c0 58 1
108 3 113 3 9 -147 15 -156 6z"/>
<path d="M2170 3650 c0 -5 5 -10 11 -10 5 0 7 5 4 10 -3 6 -8 10 -11 10 -2 0
-4 -4 -4 -10z"/>
<path d="M2820 610 c0 -5 11 -10 25 -10 14 0 25 5 25 10 0 6 -11 10 -25 10
-14 0 -25 -4 -25 -10z"/>
<path d="M123 242 c-25 -28 -123 -218 -123 -239 0 -2 78 -3 174 -3 l174 0 36
105 c41 119 44 141 16 105 -19 -24 -21 -24 -34 -7 -10 13 -177 76 -205 77 -2
0 -19 -17 -38 -38z"/>
<path d="M625 240 c-14 -16 -31 -20 -79 -20 l-61 -1 -36 -109 -36 -110 118 0
119 0 0 130 c0 72 -2 130 -3 130 -2 0 -12 -9 -22 -20z"/>
</g>
</svg>
